 



Format : AVI
Format/Info : Audio Video Interleave
File size : 1.06 GiB
Duration : 1h 41mn
Overall bit rate : 1 502 Kbps
Writing library : VirtualDub build 32842/release

Video
ID : 0
Format : MPEG-4 Visual
Format profile : Advanced Simple@L5
Format settings, BVOP : 2
Format settings, QPel : No
Format settings, GMC : No warppoints
Format settings, Matrix : Default (H.263)
Muxing mode : Packed bitstream
Codec ID : XVID
Codec ID/Hint : XviD
Duration : 1h 41mn
Bit rate : 1 364 Kbps
Width : 692 pixels
Height : 308 pixels
Display aspect ratio : 2.25:1
Frame rate : 25.000 fps
Color space : YUV
Chroma subsampling : 4:2:0
Bit depth : 8 bits
Scan type : Progressive
Compression mode : Lossy
Bits/(Pixel*Frame) : 0.256
Stream size : 986 MiB (91%)
Writing library : XviD 64

Audio
ID : 1
Format : MPEG Audio
Format version : Version 1
Format profile : Layer 3
Mode : Joint stereo
Mode extension : MS Stereo
Codec ID : 55
Codec ID/Hint : MP3
Duration : 1h 41mn
Bit rate mode : Constant
Bit rate : 128 Kbps
Channel(s) : 2 channels
Sampling rate : 44.1 KHz
Compression mode : Lossy
Stream size : 92.5 MiB (9%)
Alignment : Split accross interleaves
Interleave, duration : 40 ms (1.00 video frame)
Interleave, preload duration : 500 ms
Writing library : LAME3.98r
Encoding settings : -m j -V 4 -q 2 -lowpass 17 -b 128




 
http://www.imdb.com/title/tt1133985/




 


Users: 6.4/10 (4,062 votes) 140 reviews | Critics: 36 reviews Metascore: 40/100 (based on 37 reviews from Metacritic.com)

A test pilot is granted a mystical green ring that bestows him with otherworldly powers, as well as membership into an intergalactic squadron tasked with keeping peace within the universe.
Director:
Martin Campbell
Writers:
Greg Berlanti (screenplay), Michael Green (screenplay), and 5 more credits »
Stars:
Ryan Reynolds, Blake Lively and Peter Sarsgaard




 




 

 

 



Source Used 

Source Used

VIDEO:Green Lantern DVD TS SORS RUSSIAN 6.17 GB ...IMAGiNE ....... Thanks

AUDIO: ...........IMAGiNE ...........................................Thanks


Total rework of the rgb colours some will like some wont but had a go at something different this time ,also touched on the input/output levels and slight smoother and sharpen 

Sample included 

Enjoy !



Greetz to IMAGiNE,Flawl3ss,DiLLoN,BDK,NOiR,TOXiC,THC,Ez,Rx,Boobyblue,TaRiQ786,LKRG,





 





 



Currently looking for encoders/syncers if anything to offer contact me on dtrg@hush.ai

